{"title":"Independence Day.Resurgence.(2016).1080p-Dts-(US).mkv","uid":15976331,"size":9261875878,"categoryP":"video","categoryS":"other","magnet":"?xt=urn:btih:06e07b40fad271a91de1f820386ebf72903ca1c2&amp;dn=Independence+Day.Resurgence.%282016%29.1080p-Dts-%28US%29.mkv&amp;tr=udp%3A%2F%2Ftracker.leechers-paradise.org%3A6969&amp;tr=udp%3A%2F%2Fzer0day.ch%3A1337&amp;tr=udp%3A%2F%2Fopen.demonii.com%3A1337&amp;tr=udp%3A%2F%2Ftracker.coppersurfer.tk%3A6969&amp;tr=udp%3A%2F%2Fexodus.desync.com%3A6969","seeders":0,"leechers":6,"uploader":"Tyr3ll","files":1,"time":1475845857,"description":"Independence Day.Resurgence.(2016).1080p-Dts-(US).mkv\r\n\r\nSee imdb right here : \nhttp://www.imdb.com/title/tt1628841/\r\n\r\nCopy by Master dubbing\r\n\r\nh263.mkv/simple pass @ 1080p @ full screen resolution (1920 x 804)\r\n\r\nLanguage : US only and Sub = US, FR\r\n\r\nConsiderate it as a sort of preview.\r\n\r\nAcceptable quality as Normal but a bit grainy as well anyway.\r\n\r\nFinal size : 8,62 GB \r\n\r\nGeneral\r\n\r\nComplete name                  : Independence Day.Resurgence.(2016).1080p-Dts-(US).mkv\r\nFormat                         : Matroska\r\nFormat version                 : Version 4 / Version 2\r\nFile size                      : 8.63 GiB\r\nDuration                       : 1 h 59 min\r\nOverall bit rate               : 10.3 Mb/s\r\nEncoded date                   : UTC 2016-10-07 05:53:12\r\nWriting application            : Lavf57.51.102\r\nWriting library                : Lavf57.51.102 / Lavf57.51.102\r\n\r\nVideo\r\nID                             : 1\r\nFormat                         : H.263\r\nCodec ID                       : V_MS/VFW/FOURCC / H263\r\nDuration                       : 1 h 59 min\r\nBit rate                       : 8 599 kb/s\r\nWidth                          : 1 920 pixels\r\nHeight                         : 804 pixels\r\nDisplay aspect ratio           : 2.40:1\r\nFrame rate mode                : Constant\r\nFrame rate                     : 23.976 FPS\r\nBit depth                      : 8 bits\r\nCompression mode               : Lossy\r\nBits/(Pixel*Frame)             : 0.232\r\nStream size                    : 7.19 GiB (83%)\r\nWriting library                : Lavc57.60.101 h263p\r\nLanguage                       : English\r\nDefault                        : Yes\r\nForced                         : No\r\nDURATION                       : 01:59:44.189000000\r\n\r\nAudio\r\nID                             : 2\r\nFormat                         : DTS\r\nFormat/Info                    : Digital Theater Systems\r\nFormat profile                 : ES Matrix / Core\r\nMode                           : 16\r\nFormat settings, Endianness    : Big\r\nCodec ID                       : A_DTS\r\nDuration                       : 1 h 59 min\r\nBit rate mode                  : Constant\r\nBit rate                       : 1 509 kb/s\r\nChannel(s)                     : 7 channels / 6 channels\r\nChannel positions              : Front: L C R, Side: L R, Back: C, LFE / Front: L C R, Side: L R, LFE\r\nSampling rate                  : 48.0 kHz\r\nFrame rate                     : 93.750 FPS (512 spf)\r\nBit depth                      : 24 bits\r\nCompression mode               : Lossy\r\nStream size                    : 1.26 GiB (15%)\r\nLanguage                       : English\r\nDefault                        : Yes\r\nForced                         : No\r\nDURATION                       : 01:59:44.181000000\r\n\r\nSeed, please and enjoy.\r\nTy and best regards","torrent":{"xt":"urn:btih:06e07b40fad271a91de1f820386ebf72903ca1c2","amp;dn":"Independence+Day.Resurgence.%282016%29.1080p-Dts-%28US%29.mkv","amp;tr":["udp%3A%2F%2Ftracker.leechers-paradise.org%3A6969","udp%3A%2F%2Fzer0day.ch%3A1337","udp%3A%2F%2Fopen.demonii.com%3A1337","udp%3A%2F%2Ftracker.coppersurfer.tk%3A6969","udp%3A%2F%2Fexodus.desync.com%3A6969"],"infoHash":"06e07b40fad271a91de1f820386ebf72903ca1c2","infoHashBuffer":{"type":"Buffer","data":[6,224,123,64,250,210,113,169,29,225,248,32,56,110,191,114,144,60,161,194]},"announce":[],"urlList":[]}}